/* XPM */
static char * c_xpm[] = {
"16 16 13 1",
" 	c None",
".	c #323232",
"+	c #7E7E7E",
"@	c #7F7F7F",
"#	c #3A3A3A",
"$	c #808080",
"%	c #7B7B7B",
"&	c #949494",
"*	c #838383",
"=	c #828282",
"-	c #848484",
";	c #3B3B3B",
">	c #7C7C7C",
"................",
"................",
"................",
"................",
"....+@#..#$%....",
"....@&*##*&@....",
"....#*&**&*#....",
".....#=&&-;.....",
".....#=&&-;.....",
"....#*&**&*#....",
"....$&*##*&@....",
"....%@#..#@>....",
"................",
"................",
"................",
"................"};
