/* XPM */
static char * ii_xpm[] = {
"16 16 3 1",
" 	c None",
".	c #323232",
"+	c #727272",
"................",
"................",
"................",
"................",
"................",
"................",
"................",
"................",
"................",
"................",
"....++++++++....",
"....++++++++....",
"................",
"................",
"................",
"................"};
