/* XPM */
static char * mi_xpm[] = {
"16 16 7 1",
" 	c None",
".	c #323232",
"+	c #636363",
"@	c #727272",
"#	c #626262",
"$	c #353535",
"%	c #363636",
"................",
"................",
"................",
"................",
"....+@@@@@@#....",
"....@@@@@@@@....",
"....@@$..%@@....",
"....@@....@@....",
"....@@....@@....",
"....@@%..%@@....",
"....@@@@@@@@....",
"....#@@@@@@#....",
"................",
"................",
"................",
"................"};
